<?xml version="1.0" encoding="UTF-8"?><svg id="b" xmlns="http://www.w3.org/2000/svg" viewBox="0 0 6000 3085.02"><defs><style>.d{fill:#222457;stroke-width:0px;}</style></defs><g id="c"><path class="d" d="M5126.8,1060.24c-336.6-125.19-763.79-325.84-735.58-613.38.03-.27.04-.54.04-.8.13-169.27,90.23-317.1,344.06-317.1,153.24-.19,142.67,83.19,95.07,174.89-69.44,112.93-108.15,376,30.79,491.45,254.1,229.91,1062.65,215.65,1038.47-232.24C5881.38-30.18,4690.38-19.75,4370.17,11.67c-320.21,31.42-592.55,145.1-749.2,391.61-291.14,461.21,90.17,887.11,444.46,1160.94,6.32,3.85,24.72,22.82,5.45,15.53-45.11-28.52-89.85-57.79-133.76-88.4-68.68-47.9-135.29-99.4-198.33-155.01-22.88-20.55-45.6-40.77-67.56-62.38-215.26-206.76-408.57-506.24-313.02-815.37,26.19-90.42,67.05-177.1,120.41-254.44,29.84-43.15,63.53-83.42,100.53-120.41,13.71-13.39,27.66-26.55,42.09-38.96,5.99-5.17,3-14.44-4.09-15.94-.8-1.96-1683.25.84-1684.54-.28-7.08,0-11.58,7.36-8.31,13.62,1.97,8.99,654.58,1227.9,700.77,1335.88,1.87,4.37,1.51,9.3-.87,13.41-18.1,31.29-102.74,177.65-102.74,177.65-3.68,6.4-12.94,6.13-16.35-.41L1707.1,36.76c-2.63-5.04-7.84-8.2-13.52-8.2,0,0-1682.97.05-1689.73,0-3.81.17-4.38,3.69-3.46,4.85,1.41,1.78,3.46,3.46,3.46,3.46,166.56,154.44,1588.22,2742.88,1750.88,2997.9h8.31l890.92-1558.17,6.99-12.23c3.68-6.4,12.8-6.27,16.21.27,92.08,172.17,187.84,342.57,285.77,511.62,153.78,264.39,300.21,548.93,533.41,752.84,123,107.34,260.57,186.34,407,242.32,5.56,2.11,12.4,4.63,18.12,6.67,316.56,116.46,672.62,126.68,1009.34,83.36,348.45-44.72,695.12-166.83,900.49-469.18,183.45-270.07,229.77-657.38,76.71-952.42-154.6-298.01-479.52-466.92-781.19-579.63ZM4430.02,2759.77c-131.22,9.14-264.43-40.68-345.2-147.04-64.1-84.41-66.82-188.46-45.17-288.73,23.17-107.33,69.97-209.1,122.26-305.09,40.81-74.92,86.74-146.72,133.96-217.72,5.09-7.66,10.2-15.31,15.19-23.04.36-.55,3.1-5.83,6.29-6.24,3.19-.41,6.12,2.11,7.93,3.77,280.28,258.55,377.78,349.6,450.07,502.43,80.11,169.37-39,460.49-345.34,481.64Z"/></g></svg>