<?xml version="1.0" encoding="UTF-8"?><svg id="b" xmlns="http://www.w3.org/2000/svg" viewBox="0 0 417.95 308.58"><defs><style>.d{fill:#ec9796;stroke-width:0px;}</style></defs><g id="c"><path class="d" d="M293.22,56.21c-17.84-6.64-40.49-17.27-39-32.52,0-.01,0-.03,0-.04,0-8.97,4.78-16.81,18.24-16.81,8.12-.01,7.56,4.41,5.04,9.27-3.68,5.99-5.73,19.93,1.63,26.05,13.47,12.19,56.33,11.43,55.05-12.31C333.22-1.6,270.08-1.05,253.11.62c-16.98,1.67-31.41,7.69-39.72,20.76-15.43,24.45,4.78,47.03,23.56,61.55.34.2,1.31,1.21.29.82-2.39-1.51-4.76-3.06-7.09-4.69-3.64-2.54-7.17-5.27-10.51-8.22-1.21-1.09-2.42-2.16-3.58-3.31-11.41-10.96-21.66-26.84-16.59-43.23,1.39-4.79,3.55-9.39,6.38-13.49,1.58-2.29,3.37-4.42,5.33-6.38.73-.71,1.47-1.41,2.23-2.07.32-.27.16-.77-.22-.84-.04-.1-89.23.04-89.3-.01-.38,0-.61.39-.44.72.1.48,34.7,65.1,37.15,70.82.1.23.08.49-.05.71-.96,1.66-5.45,9.42-5.45,9.42-.19.34-.69.32-.87-.02L111.93,1.95c-.14-.27-.42-.43-.72-.43,0,0-89.22,0-89.58,0-.2,0-.23.2-.18.26.07.09.18.18.18.18,8.83,8.19,84.2,145.41,92.82,158.93h.44l47.23-82.6.37-.65c.19-.34.68-.33.86.01,4.88,9.13,9.96,18.16,15.15,27.12,8.15,14.02,15.92,29.1,28.28,39.91,6.52,5.69,13.81,9.88,21.58,12.85.29.11.66.25.96.35,16.78,6.17,35.66,6.72,53.51,4.42,18.47-2.37,36.85-8.84,47.74-24.87,9.73-14.32,12.18-34.85,4.07-50.49-8.2-15.8-25.42-24.75-41.41-30.73ZM256.28,146.3c-6.96.48-14.02-2.16-18.3-7.79-3.4-4.47-3.54-9.99-2.39-15.31,1.23-5.69,3.71-11.09,6.48-16.17,2.16-3.97,4.6-7.78,7.1-11.54.27-.41.54-.81.81-1.22.02-.03.16-.31.33-.33s.32.11.42.2c14.86,13.71,20.03,18.53,23.86,26.64,4.25,8.98-2.07,24.41-18.31,25.53Z"/><path class="d" d="M160.18,297.75v1.18h-6.5v3.67h4.53v1.24h-4.53v4.51h-1.32v-10.6h7.81Z"/><path class="d" d="M164.7,299.13c1.02-1.04,2.31-1.56,3.86-1.56s2.84.52,3.85,1.56c1.01,1.04,1.52,2.35,1.52,3.92s-.51,2.9-1.53,3.94c-1.02,1.04-2.31,1.56-3.86,1.56s-2.83-.52-3.85-1.55c-1.02-1.03-1.53-2.34-1.53-3.93s.51-2.9,1.53-3.94ZM165.62,306.11c.77.81,1.75,1.21,2.94,1.21s2.17-.4,2.94-1.2c.77-.8,1.15-1.82,1.15-3.05s-.39-2.25-1.16-3.06c-.77-.81-1.75-1.21-2.95-1.21s-2.16.4-2.92,1.21c-.77.81-1.15,1.83-1.15,3.06s.38,2.25,1.15,3.04Z"/><path class="d" d="M179.55,297.75v6.35c0,1.02.3,1.82.91,2.39.61.58,1.4.86,2.38.86s1.79-.29,2.39-.86c.61-.57.91-1.37.91-2.38v-6.36h1.32v6.38c0,1.38-.42,2.46-1.27,3.24-.86.79-1.97,1.18-3.35,1.18s-2.49-.39-3.34-1.18c-.85-.79-1.28-1.86-1.28-3.23v-6.39h1.33Z"/><path class="d" d="M200.92,308.58l-7.38-8h-.12v7.77h-1.3v-10.81h.29l7.38,7.98h.11v-7.77h1.3v10.83h-.27Z"/><path class="d" d="M210.13,297.75c1.51,0,2.77.5,3.77,1.49,1,.99,1.5,2.26,1.5,3.79s-.5,2.8-1.5,3.81c-1,1-2.26,1.51-3.77,1.51h-4.26v-10.6h4.26ZM207.19,298.91v8.25h2.86c1.16,0,2.12-.38,2.88-1.15.76-.77,1.14-1.76,1.14-2.97s-.38-2.22-1.14-2.98c-.76-.77-1.72-1.15-2.89-1.15h-2.85Z"/><path class="d" d="M223.4,297.54h.27l5.1,10.81h-1.41l-.82-1.77h-6.04l-.8,1.77h-1.41l5.1-10.81ZM221.02,305.49h5.03l-2.47-5.41h-.09l-2.47,5.41Z"/><path class="d" d="M230.27,297.75h8.69v1.18h-3.68v9.42h-1.33v-9.42h-3.68v-1.18Z"/><path class="d" d="M242.95,308.35v-10.6h1.32v10.6h-1.32Z"/><path class="d" d="M250.08,299.13c1.02-1.04,2.31-1.56,3.86-1.56s2.84.52,3.85,1.56c1.01,1.04,1.52,2.35,1.52,3.92s-.51,2.9-1.53,3.94c-1.02,1.04-2.31,1.56-3.86,1.56s-2.83-.52-3.85-1.55c-1.02-1.03-1.53-2.34-1.53-3.93s.51-2.9,1.53-3.94ZM251,306.11c.77.81,1.75,1.21,2.94,1.21s2.17-.4,2.94-1.2c.77-.8,1.15-1.82,1.15-3.05s-.39-2.25-1.16-3.06c-.77-.81-1.75-1.21-2.95-1.21s-2.16.4-2.92,1.21c-.77.81-1.15,1.83-1.15,3.06s.38,2.25,1.15,3.04Z"/><path class="d" d="M272.42,308.58l-7.38-8h-.12v7.77h-1.3v-10.81h.29l7.38,7.98h.11v-7.77h1.3v10.83h-.27Z"/><path class="d" d="M124.4,273.42v.69h-21.02c0-.21-.02-.42-.03-.7.68-.08,1.33-.14,1.98-.24.46-.07.92-.16,1.36-.31,1.46-.52,2.16-1.46,2.16-3.02.01-9.86,0-19.71,0-29.57,0-.11-.02-.22-.04-.43h-6.01c-.19-.53-.07-.74.41-.81,4.87-.71,9.67-1.73,14.36-3.24.7-.23,1.03.04,1.01.79-.04,1.91-.09,3.83-.13,5.74,0,.26,0,.52,0,.97.48-.63.85-1.12,1.23-1.59,2.42-2.98,5.31-5.35,9.07-6.39,3.89-1.07,7.49-.46,10.6,2.27,1.4,1.22,2.1,2.84,2.54,4.59.08.32.14.65.23,1.1.32-.42.59-.76.85-1.11,2.5-3.3,5.56-5.85,9.63-6.9,4.26-1.09,8.08-.23,11.14,3.11,1.23,1.34,1.81,3,2.06,4.76.15,1.03.2,2.08.2,3.12.02,7.54,0,15.08.02,22.63,0,.57.03,1.16.18,1.71.41,1.49,1.58,2.13,2.98,2.43.65.14,1.31.24,1.98.28.57.03.77.25.61.82h-20.98c-.23-.61.05-.78.62-.81,1.32-.07,2.61-.22,3.72-1.07.59-.44.91-1.03,1.02-1.73.06-.35.07-.71.07-1.06,0-7.25.02-14.51-.02-21.76,0-1.28-.14-2.58-.44-3.82-.68-2.78-2.8-4.16-5.67-3.92-2.68.22-4.75,1.56-6.67,3.32-.84.76-1.12,1.57-1.11,2.71.06,7.7.03,15.4.03,23.09,0,2.3.97,3.5,3.22,3.96.63.13,1.27.23,1.91.27.57.04.77.25.57.81h-20.98v-.71c.6-.08,1.19-.14,1.78-.23.41-.07.83-.16,1.23-.29,1.82-.58,2.47-1.46,2.47-3.39,0-4.21,0-8.41,0-12.62,0-3.52.05-7.03-.08-10.54-.05-1.28-.37-2.61-.87-3.8-.78-1.86-2.85-2.77-5.13-2.6-2.76.2-4.9,1.55-6.81,3.43-.73.72-1,1.48-1,2.51.04,7.72.05,15.44,0,23.16-.01,2.37,1.17,3.59,3.27,3.99.81.15,1.62.26,2.46.39Z"/><path class="d" d="M71.84,226.62v.52c-.14.02-.28.05-.42.06-.4.06-.8.12-1.19.21-2.64.57-4.58,2.27-5.75,5.03-1.31,3.1-2.49,6.33-3.62,9.44l-.14.4c-3.42,9.37-6.81,18.75-10.21,28.14l-1.57,4.33c-.14.38-.22.51-.58.51-.46,0-.62-.11-.77-.51-3.19-8.02-6.39-16.03-9.6-24.04l-1.45-3.64c-.06-.16-.49-1.19-.49-1.19l-.29.61c-.08.16-.14.3-.2.43l-1.78,4.02c-3.52,7.92-7.03,15.84-10.53,23.77-.17.39-.32.56-.72.56h-.06c-.34-.02-.41-.14-.52-.45-1.22-3.5-2.45-7-3.69-10.5l-4.77-13.56c-2.05-5.84-4.11-11.68-6.16-17.51-.51-1.45-1.11-2.96-2.35-4.15-1.04-.99-2.36-1.58-4.18-1.84-.11-.02-.23-.03-.34-.04-.12-.01-.23-.03-.34-.05-.03,0-.06-.02-.11-.03v-.52h21.6v.49l-.44.06c-.43.06-.87.12-1.31.2-2.15.4-2.94,1.54-2.57,3.69.16.86.36,1.68.61,2.44,2.57,7.71,5.14,15.42,7.73,23.12l1.63,4.88c.04.11.08.23.14.37l.23.56.29-.52c.07-.13.13-.23.18-.34,2.44-5.46,4.87-10.93,7.3-16.39.1-.22.17-.56.07-.82l-.45-1.09c-1.53-3.79-3.11-7.7-4.72-11.53-.73-1.73-1.63-2.83-2.82-3.46-.63-.34-1.34-.56-2.02-.78-.24-.08-.49-.16-.73-.23-.17-.06-.35-.08-.54-.1-.04,0-.08-.01-.12-.01v-.54h24.83v.47l-1.1.1c-1,.09-2.03.18-3.05.3-.58.06-1.2.2-1.91.41-1.74.51-2.44,1.82-1.93,3.59.39,1.35.92,2.68,1.44,3.96l.13.32c2.62,6.57,5.25,13.14,7.88,19.7l2.01,5c.05.13.1.25.17.41l.27.64,3.89-10.82c1.87-5.21,3.82-10.6,5.68-15.91.33-.93.53-2.03.6-3.28.1-1.9-.87-3.24-2.75-3.76-.68-.19-1.39-.3-2.08-.41-.27-.04-.54-.08-.81-.13-.21-.03-.42-.06-.64-.08l-.17-.02v-.52h15.3Z"/><path class="d" d="M206.66,274.11c-.21-.58.01-.78.58-.8,1.37-.06,2.7-.29,3.86-1.1.63-.43.94-1.05,1.03-1.79.04-.33.07-.66.07-1,0-9.63,0-19.27,0-28.9,0-.2,0-.4,0-.69h-5.5c-.21-.54-.07-.73.41-.8,4.63-.68,9.16-1.79,13.61-3.21.32-.1.7-.01,1.05-.01v7.68c.39-.51.72-.94,1.06-1.36,2.6-3.2,5.73-5.69,9.74-6.8,4.42-1.22,8.43-.34,11.77,2.91,1.33,1.3,1.95,3.01,2.19,4.84.12.97.19,1.95.19,2.92.02,7.65,0,15.31.01,22.96,0,2.36.88,3.5,3.14,4.04.65.15,1.31.26,1.97.3.58.04.82.23.62.82h-20.96v-.7c.62-.08,1.23-.14,1.83-.24.37-.06.74-.15,1.1-.26,1.92-.59,2.59-1.49,2.59-3.51,0-7.28,0-14.55,0-21.83,0-.8-.07-1.6-.19-2.39-.53-3.53-2.6-5.25-6.18-5.17-2.45.05-4.52,1.08-6.38,2.56-2.36,1.86-2.34,1.88-2.34,4.88,0,7.23.02,14.46-.01,21.69-.01,2.26,1.06,3.18,2.2,3.58.85.3,1.77.4,2.66.58.28.05.56.07.87.1v.72h-21Z"/><path class="d" d="M101.92,244.65c-1.97-4.45-5.3-7.39-9.86-8.96-2.62-.88-5.33-1.18-8.08-1-3.22.21-6.27,1-9.03,2.73-4.68,2.96-7.29,7.34-8.5,12.64-.58,2.55-.65,5.12-.51,7.69.12,2.11.56,4.14,1.32,6.11,2.22,5.65,6.39,9.15,12.23,10.49,5.07,1.18,10.07.79,14.75-1.76,2.52-1.37,4.54-3.29,6.09-5.67,2.52-3.87,3.5-8.17,3.5-12.87-.02-3.17-.56-6.34-1.9-9.4ZM93.28,258.47c-.12,3.2-.44,6.34-1.44,9.4-.69,2.06-1.62,3.98-3.5,5.21-2.87,1.88-6.67,1.09-8.71-1.74-1.18-1.62-1.81-3.47-2.25-5.37-.88-3.68-1.07-7.43-1.07-11.67-.02-2.89.14-6.25.81-9.54.53-2.52,1.23-4.98,3.01-6.95,2.99-3.33,7.9-2.89,10.26.9,1.2,1.94,1.81,4.1,2.18,6.32.76,4.45.88,8.94.69,13.43Z"/><path class="d" d="M204.9,259.63c-.23,0-.51.14-.65.3-.16.21-.21.51-.3.74-.67,1.85-1.6,3.52-3.06,4.86-2.04,1.92-4.42,3.06-7.25,3.31-2.01.16-3.96-.05-5.79-.95-3.31-1.6-5.14-4.38-6.07-7.85-.86-3.2-.83-6.46-.79-9.73.02-.56.3-.53.69-.53h21.84c1.53,0,1.55,0,1.48-1.55-.12-2.5-.69-4.89-2.06-7.02-2.11-3.29-5.26-5.14-8.96-5.97-4.58-1.07-9.05-.63-13.34,1.41-4.31,2.08-7.09,5.46-8.75,9.86-.93,2.48-1.3,5.07-1.32,7.71-.02,3.2.39,6.3,1.6,9.26,2.01,4.93,5.37,8.45,10.4,10.35,2.73,1.04,5.53,1.3,8.34.97,3.59-.42,6.65-2.06,9.19-4.61,2.78-2.8,4.28-6.23,5.09-10.03.02-.16-.21-.56-.3-.56ZM182.6,240.9c.56-1.48,1.32-2.82,2.5-3.91,2.32-2.13,6.16-2.06,7.97,1.39.97,1.85,1.41,3.87,1.69,5.93.14,1.23.16,2.48.28,3.7.09.72-.21.86-.86.86-2.01-.05-4.05-.02-6.07-.02h-6.28c-.42,0-.76-.02-.69-.6.28-2.5.56-4.98,1.46-7.34Z"/><path class="d" d="M258.79,271.95c-1.47,0-2.32.84-3.09,2.11h-.91c2.39-5.76,4.49-11.52,6.39-17.41h.91c-1.9,9.34.63,16.78,9.06,16.78,6.81,0,11.59-5.83,11.66-11.52.14-9.62-14.67-12.92-14.53-23.17.07-7.16,6.11-13.27,16.57-13.27,4.98,0,8.36,1.83,10.46,1.83,1.33,0,2.32-.98,3.02-2.25h.84c-2.18,5.41-3.93,10.81-5.55,16.29h-.91c1.12-8.43-1.19-14.81-8.14-14.81-6.39,0-9.27,4.84-9.48,8.78-.28,9.2,14.81,11.66,14.81,22.54,0,7.51-7.09,16.64-19.24,16.64-6.74,0-8.85-2.53-11.87-2.53Z"/><path class="d" d="M292.49,267.39c0-12.15,11.23-29.28,24.79-29.28,4.77,0,7.16,1.54,7.16,4.07,0,3.93-3.79,9.06-22.96,14.32-.84,3.02-1.4,6.04-1.4,8.71,0,3.23,1.26,5.48,4.14,5.48s7.79-1.26,14.81-10.6l.7.42c-8.22,11.09-15.17,13.97-20.22,13.97s-7.02-2.53-7.02-7.09ZM317.55,242.46c0-2.04-1.19-3.37-2.81-3.37-4.91,0-10.32,8.15-12.99,16.57,13.27-3.65,15.8-9.06,15.8-13.2Z"/><path class="d" d="M332.81,241.83c-1.33,0-4.7,2.81-9.76,10.67l-.7-.35c6.04-9.9,11.94-14.04,16.57-14.04,2.39,0,3.02,2.39.63,7.93l-6.95,15.94c10.39-19.73,16.85-24.5,21.56-24.5,2.04,0,3.09.98,3.09,2.6,0,2.74-3.3,3.65-8.78,4.28-4.92.7-7.65,2.88-20.78,29.42-2.32-.14-4.63-.14-7.02,0l11.3-27.38c1.26-3.16,1.47-4.56.84-4.56Z"/><path class="d" d="M355.6,268.3c0-7.79,6.95-16.64,16.36-24.72-4,1.05-6.11-1.19-10.18-1.19-2.25,0-3.58.98-3.58,2.25,0,1.69,3.58,2.6,3.58,5.06,0,1.69-1.61,3.23-3.44,3.23s-3.02-1.4-3.02-3.79c0-5.41,6.88-10.25,12.08-10.25,3.51,0,5.48,1.69,8.78-.21l.42.49c-10.67,11.59-13.69,20.78-13.69,26.61,0,3.3,1.12,4.91,3.37,4.91,6.74,0,18.33-13.62,18.33-21.49,0-3.72-3.44-4.14-3.44-7.3,0-1.97,1.76-3.51,3.58-3.51s3.23,1.26,3.23,4.07c0,11.59-14.88,32.02-26.26,32.02-3.93,0-6.11-2.32-6.11-6.18Z"/><path class="d" d="M386,267.39c0-12.15,11.23-29.28,24.79-29.28,4.77,0,7.16,1.54,7.16,4.07,0,3.93-3.79,9.06-22.96,14.32-.84,3.02-1.4,6.04-1.4,8.71,0,3.23,1.26,5.48,4.14,5.48s7.79-1.26,14.81-10.6l.7.42c-8.22,11.09-15.17,13.97-20.22,13.97s-7.02-2.53-7.02-7.09ZM411.07,242.46c0-2.04-1.19-3.37-2.81-3.37-4.91,0-10.32,8.15-12.99,16.57,13.27-3.65,15.8-9.06,15.8-13.2Z"/></g></svg>